<svg width="12" height="11" viewBox="0 0 12 11" fill="none" xmlns="http://www.w3.org/2000/svg">
<path d="M2.61237 11V3.57832H0.145541V11H2.61237ZM1.37927 2.56441C2.2395 2.56441 2.77495 1.99451 2.77495 1.28232C2.75892 0.55408 2.23953 0 1.3956 0C0.551795 0 0 0.554091 0 1.28232C0 1.99454 0.535317 2.56441 1.36317 2.56441H1.37927ZM3.97774 11H6.44457V6.85537C6.44457 6.63355 6.4606 6.41197 6.52574 6.25341C6.70407 5.81023 7.10996 5.35122 7.7914 5.35122C8.68404 5.35122 9.04115 6.03181 9.04115 7.02951V10.9999H11.5078V6.74442C11.5078 4.46478 10.2908 3.40408 8.6678 3.40408C7.33704 3.40408 6.75276 4.14792 6.42816 4.65455H6.44462V3.57816H3.9778C4.01017 4.27457 3.97774 11 3.97774 11Z" fill="#DF453E"/>
</svg>
