<svg width="14" height="11" viewBox="0 0 14 11" fill="none" xmlns="http://www.w3.org/2000/svg">
<path d="M13.54 1.30666C13.0421 1.52146 12.5002 1.67604 11.9421 1.73625C12.5216 1.39199 12.9555 0.848112 13.1625 0.206663C12.6188 0.530137 12.0231 0.756962 11.4019 0.877077C11.1422 0.599517 10.8282 0.3784 10.4794 0.227504C10.1306 0.0766081 9.75443 -0.000832784 9.37437 6.75361e-06C7.83665 6.75361e-06 6.59997 1.24646 6.59997 2.77604C6.59997 2.99083 6.62601 3.20563 6.66832 3.41228C4.36581 3.29187 2.31227 2.19187 0.947038 0.507699C0.698278 0.93259 0.567919 1.41638 0.569524 1.90873C0.569524 2.87205 1.05932 3.72145 1.80621 4.22101C1.36605 4.20368 0.936205 4.08269 0.551625 3.8679V3.90208C0.551625 5.25104 1.50517 6.36894 2.77602 6.62604C2.53741 6.68802 2.29194 6.71973 2.04541 6.72042C1.86479 6.72042 1.69393 6.70252 1.52144 6.67811C1.87292 7.77811 2.89644 8.57707 4.11522 8.60311C3.16167 9.35 1.9673 9.78935 0.670412 9.78935C0.43772 9.78935 0.222928 9.78121 0 9.75518C1.23017 10.5444 2.68978 11 4.26167 11C9.36461 11 12.1569 6.77249 12.1569 3.10311C12.1569 2.9827 12.1569 2.86228 12.1488 2.74187C12.689 2.34646 13.1625 1.85666 13.54 1.30666Z" fill="white"/>
</svg>
