<svg width="11" height="11" viewBox="0 0 11 11" fill="none" xmlns="http://www.w3.org/2000/svg">
<path d="M5.49852 3.66589C4.48861 3.66589 3.66444 4.49007 3.66444 5.5C3.66444 6.50993 4.48861 7.33411 5.49852 7.33411C6.50843 7.33411 7.3326 6.50993 7.3326 5.5C7.3326 4.49007 6.50843 3.66589 5.49852 3.66589ZM10.9994 5.5C10.9994 4.74049 11.0063 3.98785 10.9636 3.22972C10.921 2.34912 10.7201 1.56759 10.0762 0.923658C9.43086 0.278347 8.65072 0.0788372 7.77014 0.0361834C7.01064 -0.0064704 6.25802 0.000409262 5.4999 0.000409262C4.7404 0.000409262 3.98778 -0.0064704 3.22966 0.0361834C2.34908 0.0788372 1.56756 0.279723 0.923641 0.923658C0.278342 1.56897 0.0788358 2.34912 0.0361827 3.22972C-0.00647029 3.98923 0.000409255 4.74186 0.000409255 5.5C0.000409255 6.25814 -0.00647029 7.01215 0.0361827 7.77028C0.0788358 8.65088 0.279718 9.43241 0.923641 10.0763C1.56894 10.7217 2.34908 10.9212 3.22966 10.9638C3.98916 11.0065 4.74177 10.9996 5.4999 10.9996C6.2594 10.9996 7.01202 11.0065 7.77014 10.9638C8.65072 10.9212 9.43223 10.7203 10.0762 10.0763C10.7215 9.43103 10.921 8.65088 10.9636 7.77028C11.0076 7.01215 10.9994 6.25951 10.9994 5.5ZM5.49852 8.32203C3.93687 8.32203 2.67654 7.06168 2.67654 5.5C2.67654 3.93832 3.93687 2.67797 5.49852 2.67797C7.06017 2.67797 8.3205 3.93832 8.3205 5.5C8.3205 7.06168 7.06017 8.32203 5.49852 8.32203ZM8.43608 3.22146C8.07146 3.22146 7.77702 2.92701 7.77702 2.56239C7.77702 2.19777 8.07146 1.90332 8.43608 1.90332C8.80069 1.90332 9.09514 2.19777 9.09514 2.56239C9.09524 2.64897 9.07827 2.73472 9.04519 2.81473C9.01211 2.89475 8.96356 2.96744 8.90234 3.02867C8.84112 3.08989 8.76843 3.13843 8.68842 3.17151C8.60841 3.2046 8.52266 3.22157 8.43608 3.22146Z" fill="white"/>
</svg>
